# xmcd CD database file
#
# Track frame offsets:
#	150
#	18354
#	33940
#	51083
#	72718
#	90737
#	106728
#	121713
#	138103
#	158784
#	176544
#	187112
#	201748
#
# Disc length: 2923 seconds
#
# Revision: 1
# Processed by: cddbd v1.5.2PL0 Copyright (c) Steve Scherf et al.
# Submitted via: jetAudio 7
#
DISCID=b10b690d
DTITLE=Various Artist - Top 25 Country Songs of Faith
DYEAR=2014
DGENRE=Country
TTITLE0=Bless the Broken Road
TTITLE1=Touchdown Jesus
TTITLE2=Jesus, Take the Wheel
TTITLE3=Long Black Train
TTITLE4=What the World Needs
TTITLE5=Hello World
TTITLE6=I Need Thee Every Hour/Nothing But the Blood
TTITLE7=Baptism
TTITLE8=That Old King James
TTITLE9=Heaven Sent Me You
TTITLE10=Three Wooden Crosses
TTITLE11=When I Get Where I'm Going
TTITLE12=That's Why I Pray
EXTD=
EXTT0=
EXTT1=
EXTT2=
EXTT3=
EXTT4=
EXTT5=
EXTT6=
EXTT7=
EXTT8=
EXTT9=
EXTT10=
EXTT11=
EXTT12=
PLAYORDER=
